HIERARCHY
ROOT Hips
{
	OFFSET -0.001795 -0.223333 0.028219
	CHANNELS 6 Xposition Yposition Zposition Zrotation Yrotation Xrotation 
	JOINT LeftUpLeg
	{
		OFFSET 0.069520 -0.091406 -0.006815
		CHANNELS 3 Zrotation Yrotation Xrotation
		JOINT LeftLeg
		{
			OFFSET 0.034277 -0.375199 -0.004496
			CHANNELS 3 Zrotation Yrotation Xrotation
			JOINT LeftFoot
			{
				OFFSET -0.013596 -0.397961 -0.043693
				CHANNELS 3 Zrotation Yrotation Xrotation
				JOINT LeftToe
				{
					OFFSET 0.026358 -0.055791 0.119288
					CHANNELS 3 Zrotation Yrotation Xrotation
					End Site
					{
						OFFSET 0.000000 0.000000 0.000000
					}
				}
			}
		}
	}
	JOINT RightUpLeg
	{
		OFFSET -0.067670 -0.090522 -0.004320
		CHANNELS 3 Zrotation Yrotation Xrotation
		JOINT RightLeg
		{
			OFFSET -0.038290 -0.382569 -0.008850
			CHANNELS 3 Zrotation Yrotation Xrotation
			JOINT RightFoot
			{
				OFFSET 0.015774 -0.398415 -0.042312
				CHANNELS 3 Zrotation Yrotation Xrotation
				JOINT RightToe
				{
					OFFSET -0.025372 -0.048144 0.123348
					CHANNELS 3 Zrotation Yrotation Xrotation
					End Site
					{
						OFFSET 0.000000 0.000000 0.000000
					}
				}
			}
		}
	}
	JOINT Spine
	{
		OFFSET -0.002533 0.108963 -0.026696
		CHANNELS 3 Zrotation Yrotation Xrotation
		JOINT Spine1
		{
			OFFSET 0.005487 0.135180 0.001092
			CHANNELS 3 Zrotation Yrotation Xrotation
			JOINT Spine2
			{
				OFFSET 0.001457 0.052922 0.025425
				CHANNELS 3 Zrotation Yrotation Xrotation
				JOINT Neck
				{
					OFFSET -0.002778 0.213870 -0.042857
					CHANNELS 3 Zrotation Yrotation Xrotation
					JOINT Head
					{
						OFFSET 0.005152 0.064970 0.051349
						CHANNELS 3 Zrotation Yrotation Xrotation
						End Site
						{
							OFFSET 0.000000 0.000000 0.000000
						}
					}
				}
				JOINT LeftShoulder
				{
					OFFSET 0.078845 0.121749 -0.034090
					CHANNELS 3 Zrotation Yrotation Xrotation
					JOINT LeftArm
					{
						OFFSET 0.090977 0.030469 -0.008868
						CHANNELS 3 Zrotation Yrotation Xrotation
						JOINT LeftForeArm
						{
							OFFSET 0.259612 -0.012772 -0.027456
							CHANNELS 3 Zrotation Yrotation Xrotation
							JOINT LeftHand
							{
								OFFSET 0.249234 0.008986 -0.001171
								CHANNELS 3 Zrotation Yrotation Xrotation
								End Site
								{
									OFFSET 0.000000 0.000000 0.000000
								}
							}
						}
					}
				}
				JOINT RightShoulder
				{
					OFFSET -0.081759 0.118833 -0.038615
					CHANNELS 3 Zrotation Yrotation Xrotation
					JOINT RightArm
					{
						OFFSET -0.096012 0.032551 -0.009143
						CHANNELS 3 Zrotation Yrotation Xrotation
						JOINT RightForeArm
						{
							OFFSET -0.253742 -0.013329 -0.021401
							CHANNELS 3 Zrotation Yrotation Xrotation
							JOINT RightHand
							{
								OFFSET -0.255298 0.007772 -0.005559
								CHANNELS 3 Zrotation Yrotation Xrotation
								End Site
								{
									OFFSET 0.000000 0.000000 0.000000
								}
							}
						}
					}
				}
			}
		}
	}
}
MOTION
Frames: 15
Frame Time: 0.050000
0.000000 0.945470 0.000000 -0.341947 0.560138 8.206581 6.710821 -0.383342 -5.121072 1.855419 -0.024611 -3.411349 -14.248341 -6.034731 34.176866 0.000000 0.000000 0.000000 -4.920362 0.580643 -6.590936 -3.101377 0.010057 -4.654069 -4.733370 -16.208423 38.374887 0.000000 0.000000 0.000000 5.696573 0.180307 -4.277284 -2.420486 1.134788 -2.553589 -5.076057 2.956873 0.346172 6.489319 -3.472525 -8.668681 0.000000 0.000000 0.000000 -20.422371 -3.297517 -1.511789 -48.043190 -7.938979 -1.880737 -12.868654 -19.798193 2.769490 0.000000 0.000000 0.000000 19.862971 -4.743270 -3.548796 56.239517 8.215972 -1.233888 13.096314 23.470683 3.457243 0.000000 0.000000 0.000000 
0.000111 0.944859 0.000036 -0.245376 0.097059 9.053609 6.523862 -0.395580 -5.240728 1.919980 0.031992 -4.634686 -13.981436 -5.840229 34.146645 0.000000 0.000000 0.000000 -5.061085 0.648698 -7.586630 -3.166730 0.008427 -4.690914 -4.597981 -16.136302 38.169280 0.000000 0.000000 0.000000 6.661160 0.239018 -5.002199 -3.194266 1.463236 -3.331809 -6.030501 3.422482 0.610477 6.808391 -3.524076 -9.474182 0.000000 0.000000 0.000000 -21.492048 -2.921283 -1.967511 -46.799727 -8.060637 -1.742648 -13.385654 -19.370603 2.785150 0.000000 0.000000 0.000000 19.777821 -6.079024 -4.188600 58.018562 7.977814 -1.344836 13.314365 22.975845 3.444332 0.000000 0.000000 0.000000 
0.000091 0.945289 -0.000063 0.282185 0.997675 9.090498 5.947306 -0.429614 -5.627667 2.085968 0.012589 -4.414995 -14.481882 -6.066692 34.513861 0.000000 0.000000 0.000000 -5.292316 0.635395 -7.669013 -3.671280 0.076984 -4.237998 -5.109279 -16.538999 38.429875 0.000000 0.000000 0.000000 6.197150 0.223337 -4.958126 -2.787517 1.293105 -3.917251 -6.659569 2.564196 0.745786 6.344811 -3.592725 -7.426689 0.000000 0.000000 0.000000 -21.389616 -3.466705 -1.587264 -46.379798 -7.433805 -1.985394 -13.953729 -19.091485 2.849122 0.000000 0.000000 0.000000 20.777063 -5.017207 -3.740725 57.174672 6.932594 -1.908201 13.379765 23.840931 3.596171 0.000000 0.000000 0.000000 
0.000083 0.945719 -0.000088 0.433605 1.403815 9.524676 6.235453 -0.459664 -6.238023 1.378037 0.057003 -4.345647 -14.702804 -6.086604 34.868893 0.000000 0.000000 0.000000 -5.491540 0.660669 -8.271857 -3.574638 0.101110 -3.833376 -5.335622 -16.720009 38.676667 0.000000 0.000000 0.000000 6.525102 0.226580 -5.111121 -3.391329 1.553301 -3.257393 -6.687714 1.795881 -0.621171 6.261669 -3.730559 -6.261308 0.000000 0.000000 0.000000 -21.843425 -2.848682 -1.903433 -46.041077 -7.837074 -1.712289 -13.920565 -18.400556 2.746579 0.000000 0.000000 0.000000 20.084894 -5.747132 -4.241310 57.698579 6.077270 -2.125012 14.392366 23.889437 3.759042 0.000000 0.000000 0.000000 
-0.000034 0.946319 -0.000082 0.768059 2.191178 9.477491 5.867268 -0.478592 -6.326279 1.529829 0.051332 -4.401696 -15.141302 -6.252241 35.249056 0.000000 0.000000 0.000000 -5.780803 0.625462 -7.999703 -3.578159 0.103047 -3.872770 -5.722829 -17.004592 39.037434 0.000000 0.000000 0.000000 6.214897 0.219492 -5.115545 -3.056917 1.414768 -3.399296 -7.208389 1.534533 -0.312978 5.986854 -3.527425 -6.278794 0.000000 0.000000 0.000000 -21.824825 -3.299350 -1.723093 -45.673580 -8.197298 -1.567860 -15.239142 -18.276581 2.928310 0.000000 0.000000 0.000000 20.176757 -5.988507 -4.311003 57.317347 5.608134 -2.379031 15.354128 24.478265 4.089677 0.000000 0.000000 0.000000 
-0.000121 0.946772 -0.000016 0.909841 2.354253 9.660564 5.777901 -0.494288 -6.570875 1.454228 0.055557 -4.378713 -15.238699 -6.223087 35.476929 0.000000 0.000000 0.000000 -5.828544 0.628944 -8.122208 -3.741205 0.111991 -3.920376 -5.786340 -17.049661 39.233376 0.000000 0.000000 0.000000 6.229606 0.242824 -5.417873 -3.102680 1.434573 -3.230288 -7.410470 1.426931 -0.452839 6.165352 -3.669274 -6.158213 0.000000 0.000000 0.000000 -22.367674 -3.241696 -1.852895 -45.235261 -8.212039 -1.509018 -15.325438 -18.125178 2.913930 0.000000 0.000000 0.000000 19.786114 -6.033613 -4.284352 57.621818 5.568492 -2.372030 15.621164 24.508357 4.151862 0.000000 0.000000 0.000000 
-0.000252 0.946758 0.000013 1.131620 2.666790 9.609408 5.656024 -0.504396 -6.680593 1.310523 0.057050 -4.192392 -15.414430 -6.312184 35.582684 0.000000 0.000000 0.000000 -5.837934 0.614298 -7.936411 -4.096395 0.133892 -3.987058 -5.967425 -17.187822 39.293223 0.000000 0.000000 0.000000 5.997660 0.241096 -5.433852 -3.016768 1.399507 -3.012081 -7.572267 1.069018 -0.588072 6.122892 -3.582115 -6.476926 0.000000 0.000000 0.000000 -22.395009 -3.216673 -1.835780 -45.369644 -8.081967 -1.558555 -15.625182 -17.859192 2.919669 0.000000 0.000000 0.000000 19.714372 -5.805355 -4.185155 57.788135 5.165932 -2.549710 15.690812 24.842666 4.218979 0.000000 0.000000 0.000000 
-0.000338 0.946673 -0.000011 1.222824 2.648142 9.615679 5.571439 -0.509964 -6.780422 1.290079 0.050790 -4.021079 -15.408382 -6.312809 35.573612 0.000000 0.000000 0.000000 -5.915308 0.609750 -7.892190 -4.133150 0.129530 -4.075731 -5.975673 -17.197287 39.249960 0.000000 0.000000 0.000000 6.008766 0.241879 -5.440832 -3.049146 1.413895 -3.228297 -7.688827 1.136612 -0.381955 5.971803 -3.509532 -6.299573 0.000000 0.000000 0.000000 -22.454027 -3.145832 -1.900079 -45.190646 -7.910000 -1.623675 -15.913675 -17.648051 2.925986 0.000000 0.000000 0.000000 19.829556 -5.957555 -4.259129 57.897101 5.101956 -2.609598 15.491400 24.586923 4.136504 0.000000 0.000000 0.000000 
-0.000478 0.946547 -0.000034 1.344484 2.553529 9.575475 5.433005 -0.509054 -6.742449 1.294704 0.048208 -3.974657 -15.373899 -6.294202 35.564117 0.000000 0.000000 0.000000 -5.969414 0.603813 -7.785616 -4.275897 0.128056 -4.213783 -5.947991 -17.180573 39.161088 0.000000 0.000000 0.000000 5.961056 0.243389 -5.441706 -3.084708 1.429385 -3.463429 -7.610626 1.218777 -0.092957 5.800137 -3.387707 -6.343119 0.000000 0.000000 0.000000 -22.326614 -3.200434 -1.840188 -45.361194 -7.749410 -1.720228 -16.122689 -17.216202 2.885120 0.000000 0.000000 0.000000 19.764421 -5.880048 -4.199711 57.698680 5.029978 -2.670906 15.373752 24.668349 4.132388 0.000000 0.000000 0.000000 
-0.000659 0.946493 0.000025 1.490568 2.621967 9.488862 5.326022 -0.509165 -6.708859 1.230164 0.048497 -3.879065 -15.425484 -6.318947 35.599494 0.000000 0.000000 0.000000 -6.089167 0.586756 -7.545780 -4.314881 0.115221 -4.417895 -5.996741 -17.217584 39.138573 0.000000 0.000000 0.000000 5.989561 0.250623 -5.507315 -3.187910 1.474533 -3.519641 -7.598015 1.072174 0.131312 5.279342 -3.036932 -6.299320 0.000000 0.000000 0.000000 -22.251245 -3.187289 -1.792320 -45.185252 -7.707441 -1.759610 -16.430311 -16.978340 2.894208 0.000000 0.000000 0.000000 19.713591 -5.655196 -4.090207 57.562229 4.991000 -2.710988 15.377284 24.684509 4.132042 0.000000 0.000000 0.000000 
-0.000839 0.946414 0.000133 1.566334 2.702084 9.380505 5.346930 -0.494264 -6.400913 1.078107 0.073520 -4.225229 -15.490409 -6.342474 35.666485 0.000000 0.000000 0.000000 -6.215827 0.574774 -7.424508 -4.199433 0.112348 -4.366015 -6.060384 -17.268424 39.089140 0.000000 0.000000 0.000000 6.081828 0.256142 -5.546500 -3.153494 1.460998 -3.426318 -7.603488 1.029752 0.204162 5.255664 -3.016775 -6.330270 0.000000 0.000000 0.000000 -22.217278 -3.231785 -1.759914 -45.102870 -7.393986 -1.876102 -16.803993 -16.776122 2.912279 0.000000 0.000000 0.000000 19.571927 -5.773156 -4.138084 57.515434 5.005065 -2.706474 15.376133 24.693899 4.135155 0.000000 0.000000 0.000000 
-0.000961 0.946227 0.000267 1.578035 2.833935 9.286698 5.423239 -0.482691 -6.159850 0.958266 0.092552 -4.498177 -15.566888 -6.398563 35.678251 0.000000 0.000000 0.000000 -6.334846 0.557222 -7.163557 -3.970397 0.081924 -4.575807 -6.138463 -17.326716 39.069719 0.000000 0.000000 0.000000 6.059394 0.269664 -5.692248 -3.041781 1.414888 -3.344939 -7.443357 0.952291 0.276072 4.954213 -2.782376 -6.480891 0.000000 0.000000 0.000000 -22.140802 -3.154823 -1.776140 -45.193554 -7.079324 -2.006353 -16.821450 -16.549448 2.875581 0.000000 0.000000 0.000000 19.200743 -5.851842 -4.147433 57.612930 4.815405 -2.795405 15.344213 24.649517 4.117889 0.000000 0.000000 0.000000 
-0.001076 0.946179 0.000361 1.542454 2.965612 9.147315 5.542827 -0.471055 -5.935865 0.850509 0.105768 -4.661619 -15.641859 -6.448331 35.699090 0.000000 0.000000 0.000000 -6.334564 0.544669 -6.957018 -3.858453 0.072721 -4.611284 -6.199742 -17.369086 39.074419 0.000000 0.000000 0.000000 6.081190 0.282017 -5.817244 -2.958672 1.380367 -3.215457 -7.270263 0.877979 0.259791 4.946463 -2.806030 -6.322880 0.000000 0.000000 0.000000 -21.878441 -3.147456 -1.728378 -45.520707 -6.847212 -2.120276 -16.832168 -16.274275 2.829233 0.000000 0.000000 0.000000 19.134226 -5.855475 -4.154982 57.467060 4.649962 -2.868288 15.157080 24.410992 4.027381 0.000000 0.000000 0.000000 
-0.001240 0.946265 0.000435 1.417797 2.887324 8.915875 5.712428 -0.450552 -5.581637 0.789518 0.115145 -4.810724 -15.614136 -6.434827 35.687226 0.000000 0.000000 0.000000 -6.297030 0.530827 -6.644619 -3.658784 0.048147 -4.767844 -6.121639 -17.301389 39.068267 0.000000 0.000000 0.000000 5.982861 0.286016 -5.807921 -2.754027 1.293846 -3.271081 -7.022798 1.106148 0.327095 4.796084 -2.722496 -6.158972 0.000000 0.000000 0.000000 -21.522476 -3.072963 -1.757992 -46.146299 -6.722104 -2.206336 -16.666968 -15.798543 2.715529 0.000000 0.000000 0.000000 18.880499 -5.919539 -4.127071 57.560156 4.394433 -2.997142 14.862218 24.328599 3.961185 0.000000 0.000000 0.000000 
-0.001576 0.946373 0.000571 1.365664 2.988650 8.878459 5.866488 -0.449351 -5.563638 0.676364 0.121306 -4.797049 -15.665236 -6.448840 35.742572 0.000000 0.000000 0.000000 -6.187399 0.521950 -6.420631 -3.690442 0.029926 -5.048254 -6.141770 -17.308777 39.153698 0.000000 0.000000 0.000000 5.978730 0.303190 -6.011941 -2.767947 1.300405 -3.215340 -6.850790 1.141476 0.361479 4.857124 -2.821083 -5.826108 0.000000 0.000000 0.000000 -21.440388 -3.014032 -1.785813 -46.307271 -6.572792 -2.278413 -16.069700 -15.554936 2.594438 0.000000 0.000000 0.000000 18.966240 -5.799104 -4.062260 57.403224 4.099705 -3.142352 14.461965 24.080663 3.833245 0.000000 0.000000 0.000000 
